<svg width="22" height="13" viewBox="0 0 22 13" fill="none" xmlns="http://www.w3.org/2000/svg">
<path d="M0.44 3.44C0.44 1.57333 1.4 0.639999 3.32 0.639999H7C8.92 0.639999 9.88 1.57333 9.88 3.44V4.08C9.88 4.24 9.8 4.32 9.64 4.32H8.6C8.44 4.32 8.36 4.24 8.36 4.08V3.44C8.36 2.53333 7.90667 2.08 7 2.08H3.32C2.41333 2.08 1.96 2.53333 1.96 3.44V9.36C1.96 10.2667 2.41333 10.72 3.32 10.72H7C7.90667 10.72 8.36 10.2667 8.36 9.36V8.72C8.36 8.56 8.44 8.48 8.6 8.48H9.64C9.8 8.48 9.88 8.56 9.88 8.72V9.36C9.88 11.2267 8.92 12.16 7 12.16H3.32C1.4 12.16 0.44 11.2267 0.44 9.36V3.44ZM19.84 1.04C19.84 0.879999 19.92 0.799999 20.08 0.799999H21.12C21.28 0.799999 21.36 0.879999 21.36 1.04V11.76C21.36 11.92 21.28 12 21.12 12H20.08C19.92 12 19.84 11.9253 19.84 11.776V7.04H13.92V11.76C13.92 11.92 13.84 12 13.68 12H12.64C12.48 12 12.4 11.92 12.4 11.76V1.04C12.4 0.879999 12.48 0.799999 12.64 0.799999H13.68C13.84 0.799999 13.92 0.879999 13.92 1.04V5.6H19.84V1.04Z" fill="#1B1C21"/>
</svg>
