<svg width="21" height="12" viewBox="0 0 21 12" fill="none" xmlns="http://www.w3.org/2000/svg">
<path d="M9 10.56C9.16 10.56 9.24 10.64 9.24 10.8V11.76C9.24 11.92 9.16533 12 9.016 12H0.84C0.68 12 0.6 11.92 0.6 11.76V1.056C0.6 0.885333 0.68 0.799999 0.84 0.799999H8.84C9 0.799999 9.08 0.879999 9.08 1.04V2C9.08 2.16 9.00533 2.24 8.856 2.24H2.12V5.6H7.4C7.56 5.6 7.64 5.68 7.64 5.84V6.8C7.64 6.96 7.56533 7.04 7.416 7.04H2.12V10.56H9ZM19.115 12C18.891 12 18.731 11.92 18.635 11.76L12.875 3.12H12.795V11.76C12.795 11.92 12.715 12 12.555 12H11.515C11.355 12 11.275 11.92 11.275 11.76V1.04C11.275 0.879999 11.355 0.799999 11.515 0.799999H12.715C12.939 0.799999 13.099 0.879999 13.195 1.04L18.955 9.68H19.035V1.04C19.035 0.879999 19.115 0.799999 19.275 0.799999H20.315C20.475 0.799999 20.555 0.879999 20.555 1.04V11.76C20.555 11.92 20.475 12 20.315 12H19.115Z" fill="#1B1C21"/>
</svg>
