<svg width="22" height="13" viewBox="0 0 22 13" fill="none" xmlns="http://www.w3.org/2000/svg">
<path d="M9.64 11.76C9.71467 11.92 9.66133 12 9.48 12H8.36C8.24267 12 8.15733 11.984 8.104 11.952C8.05067 11.9093 8.00267 11.8453 7.96 11.76L6.04 8.16H2.12V11.76C2.12 11.92 2.04 12 1.88 12H0.84C0.68 12 0.6 11.92 0.6 11.76V1.04C0.6 0.879999 0.68 0.799999 0.84 0.799999H6.52C8.44 0.799999 9.4 1.73333 9.4 3.6V5.36C9.4 5.968 9.304 6.448 9.112 6.8C8.92 7.14133 8.70667 7.40267 8.472 7.584C8.19467 7.79733 7.89067 7.936 7.56 8L9.64 11.76ZM6.52 6.72C7.42667 6.72 7.88 6.26667 7.88 5.36V3.6C7.88 2.69333 7.42667 2.24 6.52 2.24H2.12V6.72H6.52ZM21.4769 9.36C21.4769 11.2267 20.5169 12.16 18.5969 12.16H15.0769C13.1569 12.16 12.1969 11.2267 12.1969 9.36V1.04C12.1969 0.879999 12.2769 0.799999 12.4369 0.799999H13.4769C13.6369 0.799999 13.7169 0.879999 13.7169 1.04V9.36C13.7169 10.2667 14.1702 10.72 15.0769 10.72H18.5969C19.5035 10.72 19.9569 10.2667 19.9569 9.36V1.04C19.9569 0.879999 20.0369 0.799999 20.1969 0.799999H21.2369C21.3969 0.799999 21.4769 0.879999 21.4769 1.04V9.36Z" fill="#7E7E82"/>
</svg>
