<svg width="9" height="9" viewBox="0 0 9 9" fill="none" xmlns="http://www.w3.org/2000/svg">
<path d="M8.25807 2.4583L8.66685 2.04944L6.94998 0.332244L6.54121 0.741101L6.33682 0.536672C6.0098 0.168702 5.68278 -0.0357266 5.35575 0.00515904C5.11049 0.00515904 4.9061 0.168702 4.74259 0.414015C4.49732 0.822872 4.61996 1.27261 4.66083 1.55881C4.66083 1.64058 4.70171 1.68147 4.70171 1.76324C4.70171 1.8859 4.70171 2.04944 4.41557 2.09033C4.00679 2.21298 3.47538 2.33564 2.94397 2.62184C2.20817 3.0307 1.71764 3.39867 1.4315 3.76664C-0.0809772 5.72915 0.000778159 7.40546 0.000778159 7.48723C0.000778159 7.60989 0.0416558 7.69166 0.123411 7.73255L1.22711 8.87734C1.30886 8.95911 1.39062 9 1.47237 9C1.47237 9 1.51325 9 1.59501 9C2.00378 9 3.47538 8.91823 5.19224 7.569C5.56014 7.2828 5.92804 6.79218 6.33682 6.05623C6.62296 5.56561 6.78647 5.03409 6.86823 4.58435C6.94998 4.29815 7.07262 4.29815 7.19525 4.29815C7.23613 4.29815 7.31788 4.33904 7.39964 4.33904C7.56315 4.37992 7.72666 4.42081 7.93105 4.42081C8.13544 4.42081 8.33983 4.37992 8.54421 4.25727C8.78948 4.09372 8.95299 3.88929 8.99387 3.64398C9.03475 3.3169 8.87123 2.98981 8.50334 2.70361L8.25807 2.4583Z" fill="white"/>
</svg>
